<svg width="250.000000" height="250.000000" viewBox="0 0 250 250" fill="none" xmlns="http://www.w3.org/2000/svg" xmlns:xlink="http://www.w3.org/1999/xlink">
  <desc>xiaohuohumax logo</desc>
  <defs>
    <clipPath id="clip3_119">
      <rect id="logo" rx="50.000000" width="250.000000" height="250.000000" fill="white" fill-opacity="0"/>
    </clipPath>
  </defs>
  <rect id="logo" rx="50.000000" width="250.000000" height="250.000000" fill="#FFFFFF" fill-opacity="0"/>
  <g clip-path="url(#clip3_119)">
    <path d="M88 230L92 230C96.41 230 100 226.41 100 222L100 170L150 170L150 222C150 226.41 153.58 230 158 230L162 230C166.41 230 170 226.41 170 222L170 170L212 170C216.41 170 220 166.41 220 162L220 158C220 153.58 216.41 150 212 150L170 150L170 100L212 100C216.41 100 220 96.41 220 92L220 88C220 83.58 216.41 80 212 80L170 80L170 38C170 33.58 166.41 30 162 30L158 30C153.58 30 150 33.58 150 38L150 80L100 80L100 38C100 33.58 96.41 30 92 30L88 30C83.58 30 80 33.58 80 38L80 80L28 80C23.58 80 20 83.58 20 88L20 92C20 96.41 23.58 100 28 100L80 100L80 150L28 150C23.58 150 20 153.58 20 158L20 162C20 166.41 23.58 170 28 170L80 170L80 222C80 226.41 83.58 230 88 230ZM150 100L100 100L100 150L150 150L150 100Z" fill="#F4A261" fill-opacity="1.000000" fill-rule="evenodd"/>
    <path d="M180 28.35L180 70.35L222 70.35C226.42 70.35 230 73.93 230 78.35L230 82.35C230 86.77 226.42 90.35 222 90.35L180 90.35C168.95 90.35 160 81.4 160 70.35L160 28.35C160 23.93 163.58 20.35 168 20.35L172 20.35C176.42 20.35 180 23.93 180 28.35Z" fill="#2A9D8F" fill-opacity="1.000000" fill-rule="evenodd"/>
    <path d="M109.64 28L109.64 70L159.64 70C170.69 70 179.64 78.95 179.64 90L179.64 140L221.64 140C226.06 140 229.64 143.58 229.64 148L229.64 152C229.64 156.41 226.06 160 221.64 160L159.64 160L159.64 90L89.64 90L89.64 28C89.64 23.58 93.22 20 97.64 20L101.64 20C106.06 20 109.64 23.58 109.64 28Z" fill="#E76F51" fill-opacity="1.000000" fill-rule="evenodd"/>
    <path d="M37.49 70.25L89.49 70.25C100.54 70.25 109.49 79.2 109.49 90.25L109.49 140.25L159.49 140.25C170.54 140.25 179.49 149.2 179.49 160.25L179.49 212.25C179.49 216.67 175.91 220.25 171.49 220.25L167.49 220.25C163.07 220.25 159.49 216.67 159.49 212.25L159.49 160.25L109.49 160.25C98.44 160.25 89.49 151.3 89.49 140.25L89.49 90.25L37.49 90.25C33.07 90.25 29.49 86.67 29.49 82.25L29.49 78.25C29.49 73.83 33.07 70.25 37.49 70.25Z" fill="#E9C46A" fill-opacity="1.000000" fill-rule="evenodd"/>
    <path d="M89.82 140.23L37.82 140.23C33.4 140.23 29.82 143.81 29.82 148.23L29.82 152.23C29.82 156.65 33.4 160.23 37.82 160.23L89.82 160.23L89.82 212.23C89.82 216.65 93.4 220.23 97.82 220.23L101.82 220.23C106.24 220.23 109.82 216.65 109.82 212.23L109.82 140.23L89.82 140.23Z" fill="#E76F51" fill-opacity="1.000000" fill-rule="evenodd"/>
  </g>
</svg>
